<svg width="136" height="36" xmlns="http://www.w3.org/2000/svg" xmlns:xlink="http://www.w3.org/1999/xlink" overflow="hidden"><defs><clipPath id="clip0"><rect x="0" y="0" width="136" height="36"/></clipPath></defs><g clip-path="url(#clip0)"><path d="M41.1405 6.84837C41.1405 7.06605 41.0735 7.25023 40.9563 7.40093 40.8391 7.55163 40.6716 7.63535 40.454 7.63535 40.3702 7.63535 40.2865 7.60186 40.186 7.51814 40.0856 7.45116 40.0019 7.36744 39.9181 7.30046 39.8344 7.21674 39.7507 7.14977 39.6502 7.09953 39.5498 7.0493 39.4326 7.01581 39.3153 7.01581 38.7293 7.01581 37.9591 7.21674 37.0381 7.60186 36.5693 7.80279 36.134 8.03721 35.7321 8.28837 35.3302 8.53953 34.9284 8.84093 34.5433 9.15907 34.1581 9.47721 33.7898 9.82884 33.4381 10.2307 33.0865 10.6158 32.7851 11.0177 32.5172 11.4028 32.266 11.7544 32.0819 12.173 31.9479 12.6753 31.814 13.1609 31.747 13.6465 31.747 14.0986 31.747 14.3163 31.8642 14.5507 32.0819 14.7851 32.2995 15.0195 32.534 15.1702 32.7851 15.2372 33.0698 15.3209 33.4214 15.3544 33.8233 15.3544 34.1247 15.3544 34.4428 15.3209 34.7944 15.2372 35.146 15.1535 35.4809 15.053 35.8326 14.9191 36.1842 14.7851 36.5191 14.6344 36.8372 14.4502 37.1553 14.2828 37.4567 14.0986 37.7247 13.8977 37.8251 13.814 37.9256 13.7302 38.026 13.6298 38.1265 13.5293 38.2437 13.4121 38.3609 13.2614 38.4781 13.1274 38.5786 12.9935 38.6456 12.8763 38.7126 12.7591 38.7963 12.6419 38.8298 12.5414 38.8633 12.4912 38.88 12.4242 38.88 12.3572 38.88 12.2902 38.8633 12.1898 38.8298 12.0893 38.7963 11.9888 38.7795 11.8884 38.7795 11.8214 38.7795 11.6372 38.9972 11.5535 39.4326 11.5535 39.5665 11.5535 39.7674 11.654 40.0354 11.8549 40.3033 12.0558 40.4372 12.2065 40.4372 12.3237 40.4372 12.3405 40.2865 12.6419 39.9851 13.2447 39.8344 13.546 39.7172 13.7637 39.6502 13.9312 39.5665 14.0986 39.5163 14.1991 39.5163 14.2326 39.4326 14.4167 39.3488 14.6344 39.2651 14.8688 39.1814 15.1033 39.0977 15.3544 39.014 15.6391 38.8465 16.2084 38.7628 16.6102 38.7628 16.8614 38.746 16.9116 38.7628 16.9619 38.7795 17.0121 38.7963 17.0623 38.8298 17.1126 38.8465 17.146 38.88 17.1795 38.8967 17.2298 38.9302 17.2465 38.9637 17.28 38.9637 17.2967 38.9637 17.3135 38.9637 17.4307 38.947 17.5312 38.8967 17.6316 38.8633 17.7321 38.7963 17.8158 38.7293 17.8828 38.6623 17.9498 38.5786 18.0167 38.4781 18.067 38.3777 18.1172 38.2772 18.134 38.16 18.134 37.9088 18.134 37.7414 18.0502 37.6577 17.8828 37.574 17.7153 37.5237 17.4809 37.5237 17.1963 37.5237 17.1126 37.5237 17.0456 37.5405 16.9786 37.5405 16.9116 37.5572 16.8279 37.574 16.7609 37.6074 16.6102 37.6409 16.4428 37.6744 16.2586 37.6912 16.1749 37.7247 16.0912 37.7414 16.0242 37.7581 15.9572 37.7749 15.8902 37.7916 15.84 37.8586 15.5721 37.8921 15.3879 37.8921 15.2874 37.8921 15.2372 37.8753 15.2205 37.8586 15.2205 37.7581 15.2205 37.44 15.3544 36.9209 15.6223 36.653 15.7563 36.4353 15.8567 36.2846 15.9237 36.1172 16.0074 36.0167 16.0577 35.9498 16.0744 35.1126 16.4093 34.3256 16.5767 33.5888 16.5767 33.12 16.5767 32.6177 16.4763 32.0819 16.2921 31.546 16.0912 31.094 15.8233 30.7256 15.4549 30.3572 15.0865 30.173 14.6679 30.173 14.1823 30.173 12.7591 30.826 11.3023 32.1321 9.7786 32.7014 9.10884 33.2707 8.55628 33.8065 8.08744 34.3423 7.63535 34.9953 7.21674 35.7823 6.81488 35.8995 6.74791 36.0502 6.68093 36.2009 6.61395 36.3516 6.54698 36.5358 6.48 36.72 6.39628 37.1051 6.24558 37.4902 6.11163 37.8753 6.01116 38.2605 5.89395 38.6121 5.82698 38.947 5.77674 39.1479 5.74326 39.466 5.72651 39.8679 5.72651 40.0186 5.72651 40.1693 5.74326 40.3033 5.81023 40.454 5.87721 40.5712 5.96093 40.6884 6.0614 40.8056 6.16186 40.8893 6.29581 40.9563 6.42977 41.1237 6.56372 41.1405 6.69767 41.1405 6.84837Z" fill="#1B1B1B" transform="scale(1.00027 1)"/><path d="M53.213 11.8381C53.213 11.8884 53.213 11.9721 53.1963 12.0391 53.1795 12.1228 53.1628 12.2065 53.1293 12.2735 53.0958 12.3572 53.0791 12.4409 53.0456 12.5079 53.0121 12.5749 52.9786 12.6419 52.9451 12.6921 52.9116 12.7256 52.8781 12.7758 52.8112 12.8428 52.7609 12.9098 52.694 12.9767 52.627 13.0605 52.56 13.1442 52.493 13.2112 52.4093 13.2949 52.3256 13.3786 52.2419 13.4623 52.1581 13.5293 51.8567 13.7972 51.5721 14.0651 51.2874 14.3163 51.0028 14.5674 50.7014 14.8019 50.4 15.0028 50.0986 15.2037 49.7805 15.3544 49.4623 15.4716 49.1274 15.5888 48.7758 15.6391 48.3907 15.6391 48.2065 15.6391 48.0391 15.6056 47.8549 15.5386 47.6707 15.4716 47.5033 15.3879 47.3526 15.254 47.2019 15.1367 47.0512 14.986 46.9507 14.8186 46.8335 14.6512 46.7498 14.467 46.6995 14.266 46.5656 14.4167 46.4149 14.5674 46.2642 14.7181 46.1135 14.8688 45.946 15.0363 45.7786 15.187 45.6112 15.3377 45.4437 15.5051 45.2595 15.6391 45.0754 15.7898 44.9079 15.9237 44.707 16.0409 44.6065 16.1079 44.4726 16.1749 44.3219 16.2586 44.1712 16.3423 44.0205 16.4093 43.8698 16.4763 43.7023 16.5433 43.5516 16.5935 43.3842 16.627 43.2167 16.6605 43.0828 16.694 42.9488 16.694 42.7479 16.694 42.5805 16.627 42.4465 16.5098 42.3126 16.3926 42.1953 16.2419 42.0949 16.0577 41.9944 15.8735 41.9274 15.6893 41.894 15.4884 41.8437 15.2874 41.827 15.1033 41.827 14.9526 41.827 14.6344 41.8772 14.3163 41.9609 13.9814 42.0447 13.6465 42.1786 13.3284 42.3126 13.0102 42.4633 12.6921 42.614 12.3907 42.7981 12.1228 42.9823 11.8381 43.1498 11.587 43.334 11.3693 43.5181 11.1349 43.7358 10.9172 43.987 10.6828 44.2381 10.4484 44.4893 10.2474 44.7572 10.08 45.0251 9.89581 45.293 9.76186 45.5442 9.64465 45.7953 9.52744 46.0298 9.47721 46.2307 9.47721 46.3312 9.47721 46.4316 9.47721 46.5488 9.47721 46.666 9.47721 46.7665 9.47721 46.8837 9.49395 47.0009 9.5107 47.1014 9.52744 47.2019 9.54419 47.3023 9.57767 47.4028 9.61116 47.4865 9.6614 47.5367 9.69488 47.587 9.74512 47.6372 9.82884 47.6874 9.91256 47.7544 9.99628 47.8046 10.0967 47.8549 10.1972 47.9051 10.2977 47.9386 10.3981 47.9721 10.4986 47.9888 10.5823 47.9888 10.6326 47.9888 10.7833 47.9553 11.0009 47.8884 11.2688 47.8046 11.6037 47.7377 11.9051 47.6707 12.173 47.6037 12.4409 47.5702 12.7256 47.5702 13.0102 47.5702 13.1777 47.6037 13.3451 47.654 13.5126 47.7042 13.68 47.7879 13.8307 47.8884 13.9814 47.9888 14.1153 48.106 14.2326 48.24 14.3163 48.374 14.4 48.5414 14.4502 48.7256 14.4502 49.0102 14.4502 49.3116 14.3833 49.6298 14.266 49.9312 14.1488 50.2493 13.9814 50.5674 13.7637 50.8856 13.546 51.187 13.3116 51.5051 13.027 51.8233 12.7423 52.1246 12.4409 52.426 12.1395 52.4428 12.106 52.493 12.0558 52.56 11.9888 52.627 11.9219 52.6772 11.8549 52.7442 11.7879 52.8112 11.7209 52.8781 11.654 52.9284 11.6037 52.9953 11.5535 53.0288 11.52 53.0623 11.52 53.1628 11.5535 53.213 11.654 53.213 11.8381ZM46.8167 11.2521C46.8167 11.1684 46.8167 11.0679 46.8 10.9507 46.7833 10.8335 46.7665 10.733 46.6995 10.6493 46.6493 10.5656 46.5823 10.5321 46.4986 10.5321 46.4149 10.5321 46.3479 10.5321 46.2642 10.5321 46.0967 10.5321 45.9293 10.5656 45.7786 10.6158 45.6279 10.666 45.4772 10.7498 45.3265 10.8335 45.1758 10.934 45.0419 11.0344 44.8912 11.1516 44.7572 11.2688 44.6233 11.4028 44.4893 11.5367 44.3721 11.654 44.2549 11.7879 44.1377 11.9386 44.0205 12.0893 43.9033 12.2735 43.786 12.4744 43.6688 12.6753 43.5516 12.8763 43.4512 13.0772 43.334 13.2949 43.2502 13.4958 43.1665 13.7135 43.0828 13.9144 43.0158 14.1153 42.9656 14.3163 42.9153 14.5172 42.8986 14.6847 42.8986 14.8521 42.8986 14.9023 42.8986 14.9693 42.9153 15.0363 42.9321 15.12 42.9488 15.187 42.9656 15.2707 42.9991 15.3377 43.0326 15.4047 43.066 15.4549 43.0995 15.5051 43.1665 15.5386 43.2335 15.5386 43.4512 15.5386 43.7358 15.4716 44.054 15.3377 44.506 15.1535 44.9079 14.8856 45.2763 14.5507 45.6447 14.2158 45.9628 13.8307 46.214 13.3953 46.6326 12.7423 46.8167 12.0223 46.8167 11.2521Z" fill="#1B1B1B" transform="scale(1.00027 1)"/><path d="M63.5777 11.7712C63.5777 11.8884 63.5442 12.0056 63.494 12.1228 63.3935 12.3405 63.1423 12.6586 62.774 13.094 62.5898 13.3116 62.4056 13.5293 62.1879 13.7302 61.987 13.9312 61.7693 14.1488 61.5349 14.3665 61.3005 14.5842 61.0828 14.7684 60.8651 14.9526 60.6474 15.12 60.4465 15.2874 60.2288 15.4214 59.827 15.706 59.4921 15.84 59.2577 15.84 59.1572 15.84 59.04 15.8065 58.8893 15.7395 58.5879 15.6056 58.3535 15.3544 58.1693 14.986 58.0019 14.6177 57.8679 14.2326 57.8009 13.8307 57.734 13.4288 57.667 12.9767 57.6167 12.4744 57.014 13.5963 56.2437 14.5842 55.2893 15.4549 54.3349 16.3256 53.347 16.7609 52.3088 16.7609 52.0242 16.7609 51.8065 16.6102 51.6558 16.3088 51.5051 16.0074 51.4381 15.706 51.4381 15.3879 51.4381 14.9526 51.4716 14.6344 51.5386 14.4167 51.7395 13.7972 51.974 13.2279 52.2251 12.6921 52.493 12.1563 52.8112 11.6205 53.1795 11.1181 53.4307 10.7833 53.6986 10.4484 54.0167 10.1135 54.3349 9.7786 54.6363 9.54419 54.9042 9.39349 55.2558 9.2093 55.7414 9.10884 56.3944 9.10884 56.6121 9.10884 56.813 9.22605 56.9637 9.47721 57.1144 9.72837 57.2484 10.013 57.3153 10.3479 57.3991 10.6995 57.4326 10.9674 57.4326 11.1684 57.4995 10.934 57.5665 10.6995 57.6335 10.4484 57.6837 10.214 57.734 9.96279 57.7842 9.69488 57.8344 9.44372 57.8679 9.15907 57.9014 8.87442 57.9349 8.58977 57.9684 8.28837 58.0019 7.95349 58.0186 7.86977 58.0186 7.75256 58.0354 7.6186 58.0521 7.48465 58.0521 7.33395 58.0688 7.14977 58.1023 6.7814 58.1191 6.46326 58.1526 6.21209 58.186 5.96093 58.2195 5.79349 58.2698 5.70977 58.387 5.50884 58.5879 5.40837 58.8726 5.40837 59.0233 5.40837 59.1572 5.44186 59.2912 5.50884 59.4419 5.55907 59.5088 5.64279 59.5088 5.76 59.5088 5.81023 59.4921 5.9107 59.4753 6.04465 59.4586 6.17861 59.4251 6.34605 59.3916 6.54698 59.3581 6.74791 59.3079 7.01581 59.2409 7.31721 59.174 7.6186 59.107 7.98698 59.0233 8.40558 59.0233 8.45581 59.0065 8.55628 58.973 8.69023 58.9395 8.82419 58.9228 8.99163 58.8893 9.14233 58.8558 9.30977 58.8391 9.44372 58.8056 9.59442 58.7888 9.72837 58.7721 9.81209 58.7553 9.84558 58.6884 10.2307 58.6381 10.5991 58.6047 10.934 58.5712 11.2688 58.5544 11.6205 58.5544 11.9721 58.5544 12.2567 58.5544 12.5749 58.5712 12.96 58.5879 13.3451 58.6214 13.7135 58.6716 14.0819 58.7219 14.4335 58.8056 14.6177 58.9228 14.6177 59.3079 14.6177 59.7935 14.4335 60.346 14.0819 60.8986 13.7135 61.4344 13.2949 61.9367 12.826 62.4558 12.3572 62.9079 11.9051 63.3098 11.4865 63.3433 11.453 63.36 11.4363 63.3935 11.4363 63.4437 11.4363 63.4772 11.4698 63.494 11.5535 63.5609 11.6205 63.5777 11.7042 63.5777 11.7712ZM56.88 12.24C56.7628 12.2065 56.6623 12.1563 56.5953 12.0558 56.5284 11.9553 56.4949 11.8549 56.4949 11.7377 56.4949 11.6372 56.5116 11.5033 56.5451 11.3191 56.5786 11.1349 56.5953 10.9842 56.5953 10.8837 56.5953 10.8 56.5786 10.6995 56.5284 10.5991 56.4781 10.4986 56.4279 10.3981 56.3442 10.2977 56.2772 10.1972 56.1935 10.1302 56.1098 10.0633 56.026 9.99628 55.9256 9.96279 55.8419 9.96279 55.5907 9.96279 55.2391 10.2307 54.8037 10.7665 54.586 11.0344 54.3851 11.3023 54.2009 11.5535 54.0167 11.8047 53.8493 12.0558 53.6986 12.2902 53.5312 12.5581 53.3805 12.7926 53.2633 13.0102 53.146 13.2279 53.0456 13.4288 52.9619 13.5963 52.6772 14.1991 52.5433 14.6847 52.5433 15.0363 52.5433 15.4884 52.694 15.706 52.9953 15.706 53.2633 15.706 53.6316 15.5553 54.1005 15.2372 54.586 14.9023 54.9544 14.6177 55.2223 14.3498 55.4902 14.0651 55.7246 13.814 55.9088 13.6298 56.093 13.4288 56.227 13.2781 56.3442 13.1609 56.4614 13.0437 56.5451 12.9098 56.6288 12.7591 56.7126 12.5749 56.7963 12.4074 56.88 12.24Z" fill="#1B1B1B" transform="scale(1.00027 1)"/><path d="M67.8977 11.2186C67.8642 11.5535 67.8307 11.9219 67.7972 12.3237 67.7805 12.7256 67.747 13.1777 67.6967 13.6633 67.68 13.8474 67.6633 14.0484 67.6465 14.2828 67.6298 14.5172 67.5963 14.7516 67.5628 14.986 67.5293 15.2372 67.5126 15.4716 67.4791 15.706 67.4456 15.9405 67.4288 16.1581 67.3953 16.3423 67.3451 16.627 67.2949 16.9116 67.2279 17.213 67.1609 17.5144 67.0772 17.8158 66.9767 18.1005 66.8763 18.3851 66.7591 18.6698 66.6084 18.9377 66.4577 19.2056 66.2902 19.44 66.0893 19.6242 65.8884 19.8251 65.654 19.9758 65.386 20.093 65.1181 20.2102 64.8167 20.2772 64.4819 20.2772 64.2642 20.2772 64.0465 20.2437 63.8288 20.1935 63.6112 20.1433 63.3935 20.0763 63.1758 19.9758 62.9581 19.8921 62.7572 19.7749 62.5563 19.6577 62.3553 19.5405 62.1712 19.4065 62.0037 19.2726 61.8195 19.1219 61.6521 18.9544 61.5014 18.8037 61.3507 18.6363 61.2335 18.4856 61.1498 18.3181 61.0493 18.1507 60.9991 18 60.9991 17.8326 60.9991 17.6819 61.0493 17.6149 61.1498 17.6149 61.1833 17.6149 61.2167 17.6316 61.2502 17.6651 61.267 17.6819 61.3005 17.6986 61.3172 17.7321 61.3507 17.7656 61.3674 17.7823 61.4009 17.8158 61.4177 17.8493 61.4512 17.866 61.4679 17.8828 61.4847 17.8995 61.5014 17.9163 61.5014 17.9163 62.4223 18.7702 63.4102 19.1888 64.4651 19.1888 64.8167 19.1888 65.1014 19.1051 65.3191 18.9544 65.5367 18.787 65.7209 18.586 65.8549 18.3349 65.9888 18.0837 66.0893 17.7991 66.1563 17.4809 66.2233 17.1628 66.2902 16.8614 66.3405 16.5433 66.374 16.3591 66.3907 16.1581 66.4242 15.974 66.4409 15.7898 66.4744 15.5888 66.4912 15.3712 66.5079 15.1702 66.5247 14.9358 66.5414 14.7181 66.5581 14.4837 66.5749 14.2326 66.6084 13.9647 66.4074 14.1823 66.1563 14.4 65.8716 14.6344 65.5702 14.8688 65.2521 15.0865 64.9005 15.2874 64.5656 15.4884 64.214 15.6558 63.8623 15.7898 63.5107 15.9237 63.1926 15.9907 62.9079 15.9907 62.7907 15.9907 62.6735 15.9572 62.5563 15.907 62.4558 15.8567 62.3553 15.773 62.2884 15.6558 62.2047 15.5553 62.1544 15.4214 62.1042 15.254 62.054 15.1033 62.0372 14.9191 62.0372 14.7349 62.0372 14.4502 62.0874 14.1656 62.1879 13.8474 62.2884 13.5293 62.4056 13.2112 62.5563 12.9098 62.707 12.5916 62.8744 12.2902 63.0586 11.9888 63.2428 11.6874 63.4102 11.4363 63.5944 11.2019 63.7619 10.9674 63.9795 10.733 64.214 10.4819 64.4651 10.2307 64.7163 9.99628 65.0009 9.79535 65.2856 9.59442 65.5702 9.41023 65.8716 9.27628 66.173 9.14233 66.4744 9.07535 66.7591 9.07535 67.0102 9.07535 67.2447 9.12558 67.4623 9.24279 67.68 9.36 67.8474 9.52744 67.9647 9.74512 67.9981 9.79535 68.0149 9.87907 68.0149 9.97953 68.0149 10.08 68.0149 10.1972 68.0149 10.3312 68.0149 10.4651 67.9981 10.5991 67.9647 10.7498 67.9312 10.9172 67.9144 11.0679 67.8977 11.2186ZM66.7256 12.5247C66.7423 12.374 66.7591 12.2065 66.7758 12.0056 66.7926 11.8047 66.826 11.5535 66.8428 11.2521 66.8595 11.1014 66.8763 10.934 66.893 10.7833 66.9098 10.6326 66.9098 10.4986 66.8763 10.3981 66.8428 10.2642 66.7591 10.1637 66.6586 10.1302 66.5414 10.0967 66.374 10.08 66.1228 10.08 65.8884 10.2307 65.6707 10.3981 65.4363 10.6158 65.2019 10.8335 64.9842 11.0512 64.7833 11.3023 64.5823 11.5535 64.3814 11.8047 64.1972 12.0558 64.013 12.3237 63.8623 12.5749 63.7284 12.826 63.5777 13.094 63.4605 13.3786 63.3767 13.6465 63.293 13.9144 63.2428 14.1488 63.2428 14.333 63.2428 14.4167 63.2595 14.4837 63.293 14.534 63.3265 14.5842 63.36 14.6344 63.4102 14.6679 63.4605 14.7014 63.5107 14.7181 63.5777 14.7349 63.6447 14.7516 63.7116 14.7516 63.7786 14.7516 63.946 14.7516 64.1302 14.7181 64.3144 14.6512 64.5154 14.5842 64.6995 14.4837 64.9005 14.3833 65.0847 14.2828 65.2688 14.1656 65.453 14.0484 65.6372 13.9312 65.7712 13.8307 65.9051 13.7302 65.9553 13.6967 66.0223 13.6298 66.106 13.546 66.1898 13.4623 66.2735 13.3619 66.3572 13.2614 66.4409 13.1609 66.5247 13.0437 66.5916 12.9265 66.6586 12.7591 66.7088 12.6419 66.7256 12.5247Z" fill="#1B1B1B" transform="scale(1.00027 1)"/><path d="M78.614 11.7712C78.614 11.8381 78.5637 11.9721 78.4633 12.1563 78.2121 12.5079 77.9274 12.8763 77.626 13.2279 77.3246 13.5795 76.9898 13.9312 76.6381 14.2493 76.2865 14.5674 75.9349 14.8688 75.5498 15.1535 75.1646 15.4381 74.7963 15.6726 74.4112 15.8735 74.026 16.0744 73.6409 16.2419 73.2726 16.3423 72.9042 16.4428 72.5191 16.5098 72.1674 16.493 71.3972 16.493 70.8112 16.2753 70.3758 15.8233 69.9572 15.3712 69.7395 14.7014 69.7395 13.7972 69.7395 13.0437 69.8567 12.307 70.0912 11.6037 70.3256 10.9005 70.7274 10.214 71.28 9.56093 71.3805 9.44372 71.4977 9.34326 71.6316 9.22605 71.7656 9.12558 71.8995 9.02512 72.0502 8.9414 72.2009 8.85767 72.3516 8.7907 72.5023 8.74047 72.653 8.69023 72.8205 8.65674 72.9712 8.65674 73.0047 8.65674 73.0549 8.65674 73.1219 8.67349 73.1888 8.69023 73.2558 8.70698 73.3395 8.72372 73.4233 8.74047 73.4902 8.77395 73.5572 8.80744 73.6242 8.84093 73.6912 8.89116 73.7246 8.9414 73.8586 9.09209 73.9591 9.25953 74.0428 9.41023 74.1265 9.57767 74.16 9.74512 74.1767 9.94605 74.1935 10.1637 74.16 10.3814 74.093 10.5991 74.026 10.8167 73.9256 11.0344 73.7916 11.2521 73.6577 11.4698 73.4567 11.7042 73.2391 11.9386 73.0214 12.173 72.7367 12.4242 72.4019 12.7088 72.2009 12.8763 71.9665 13.0772 71.7153 13.2781 71.4642 13.4791 71.1628 13.7135 70.8112 13.9312 70.8112 14.4 70.9451 14.7516 71.2298 14.986 71.5144 15.2205 71.8995 15.3544 72.3851 15.3544 72.653 15.3544 72.9377 15.3209 73.2056 15.254 73.4902 15.187 73.7581 15.0865 74.026 14.9693 74.294 14.8521 74.5619 14.7181 74.813 14.5674 75.0642 14.4167 75.2986 14.266 75.5163 14.0986 75.9181 13.7972 76.2865 13.5126 76.6214 13.2112 76.9563 12.9098 77.2744 12.6084 77.6093 12.2735L77.9944 11.8884C78.2288 11.6874 78.3963 11.587 78.4967 11.587 78.5805 11.6372 78.614 11.6874 78.614 11.7712ZM73.1219 10.3479C73.1219 10.2809 73.1051 10.1972 73.0884 10.1302 73.0716 10.0633 73.0381 9.99628 73.0047 9.94605 72.9712 9.89581 72.9377 9.84558 72.8874 9.81209 72.8372 9.7786 72.787 9.76186 72.7367 9.76186 72.4856 9.7786 72.2344 9.9293 71.9833 10.2307 71.7321 10.5321 71.4977 10.9172 71.2633 11.4028 71.213 11.5033 71.1628 11.6205 71.1293 11.7544 71.0958 11.8884 71.0456 12.0223 71.0121 12.1563 70.9786 12.2902 70.9451 12.4242 70.9116 12.5581 70.8781 12.6921 70.8614 12.8093 70.8447 12.9098 71.0958 12.7256 71.3302 12.5581 71.5312 12.3907 71.7321 12.2233 71.933 12.0726 72.1172 11.9051 72.2344 11.8047 72.3516 11.6874 72.4688 11.5702 72.586 11.453 72.7033 11.3191 72.8037 11.1851 72.9042 11.0512 72.9879 10.9172 73.0381 10.7665 73.1051 10.6493 73.1219 10.4986 73.1219 10.3479Z" fill="#1B1B1B" transform="scale(1.00027 1)"/><path d="M85.0605 10.4149C85.0605 10.5991 85.0102 10.733 84.9098 10.8167 84.8093 10.9172 84.7088 11.0009 84.5749 11.0679 84.4242 11.1349 84.24 11.2019 84.0391 11.2688 83.8381 11.3191 83.654 11.386 83.4363 11.4195 83.2354 11.4698 83.0344 11.5033 82.8167 11.5367 82.6158 11.5702 82.4149 11.587 82.2307 11.6205 82.0298 11.6372 81.8121 11.654 81.5944 11.6707 81.3767 11.6874 81.1591 11.7042 80.9414 11.7377 80.7237 11.7544 80.5395 11.7879 80.3553 11.8214 80.1712 11.8549 80.0372 11.8884 79.92 11.9219 79.8195 12.3572 79.7191 12.7758 79.6019 13.1609 79.4846 13.5628 79.4009 13.9479 79.3172 14.3498 79.3005 14.4335 79.267 14.5842 79.2335 14.7516 79.2 14.9358 79.1665 15.12 79.1498 15.3209 79.1163 15.5219 79.0995 15.706 79.066 15.8735 79.0493 16.0409 79.0326 16.1749 79.0326 16.2586 79.0326 16.4595 79.066 16.6102 79.133 16.694 79.2 16.7777 79.267 16.8781 79.334 16.9284 79.4009 16.9953 79.4846 17.0456 79.5349 17.0958 79.5851 17.146 79.6354 17.2298 79.6354 17.3302 79.6354 17.3972 79.6019 17.4642 79.5349 17.5312 79.4679 17.5981 79.3842 17.6484 79.3005 17.6986 79.2167 17.7488 79.1163 17.7823 79.0158 17.8158 78.9153 17.8493 78.8149 17.8493 78.7479 17.8493 78.614 17.8493 78.48 17.8158 78.3795 17.7321 78.2791 17.6484 78.1786 17.5479 78.0949 17.4307 78.0112 17.3135 77.9609 17.1628 77.9107 17.0121 77.8605 16.8614 77.8437 16.694 77.8437 16.5265 77.8437 16.3088 77.8605 16.0744 77.894 15.8233 77.9274 15.5721 77.9777 15.3209 78.0447 15.053 78.0949 14.7851 78.1619 14.5172 78.2288 14.2493 78.2958 13.9814 78.3628 13.6967 78.413 13.4288 78.4298 13.3116 78.4633 13.1944 78.4967 13.0772 78.5302 12.96 78.547 12.8428 78.5637 12.7256 78.5805 12.6251 78.5972 12.5247 78.614 12.4577 78.6307 12.3907 78.6307 12.3405 78.6307 12.3237 78.6307 12.24 78.5972 12.1898 78.547 12.1395 78.4967 12.106 78.4298 12.0726 78.346 12.0726 78.2958 12.0726 78.1954 12.0726 78.0949 12.0893 77.9944 12.106 77.8605 12.106 77.7265 12.1228 77.5926 12.1395 77.4753 12.1563 77.3581 12.1563 77.2409 12.173 77.1572 12.173 77.107 12.173 76.9395 12.173 76.7888 12.1563 76.6716 12.1395 76.5544 12.1228 76.454 12.0726 76.387 12.0223 76.32 11.9721 76.253 11.8884 76.2195 11.7879 76.186 11.6874 76.1693 11.5535 76.1693 11.386 76.1693 11.3191 76.2028 11.2688 76.2698 11.2353 76.3367 11.2019 76.4037 11.1684 76.5042 11.1516 76.5879 11.1349 76.6884 11.1181 76.7888 11.1181 76.8893 11.1181 76.973 11.1181 77.0567 11.1181 77.1237 11.1181 77.2242 11.1181 77.3581 11.1014 77.4921 11.0847 77.6428 11.0679 77.8102 11.0679 77.9609 11.0512 78.1116 11.0344 78.2623 11.0344 78.413 11.0344 78.5135 11.0177 78.5637 11.0177 78.5972 11.0177 78.6307 11.0177 78.6642 11.0177 78.6977 11.0177 78.7479 11.0009 78.7814 10.9842 78.8149 10.9674 78.8651 10.934 78.8986 10.8837 78.9321 10.8335 78.9656 10.7665 78.9823 10.666 79.0158 10.5153 79.0493 10.3479 79.0995 10.147 79.1498 9.94605 79.2 9.74512 79.2502 9.54419 79.3005 9.34326 79.3507 9.14233 79.4009 8.9414 79.4512 8.74047 79.4846 8.57302 79.5181 8.43907 79.5684 8.30512 79.6019 8.15442 79.6354 8.00372 79.6688 7.85302 79.7023 7.70233 79.7191 7.55163 79.7358 7.40093 79.7693 7.25023 79.8028 7.09953 79.8363 6.94884 79.8865 6.83163 79.9367 6.69767 80.0372 6.44651 80.2047 6.3293 80.4391 6.3293 80.7907 6.3293 80.9749 6.53023 80.9749 6.91535 80.9749 7.16651 80.9247 7.43442 80.8242 7.75256 80.5898 8.47256 80.4223 9.07535 80.3219 9.56093 80.2047 10.0298 80.1544 10.3479 80.1544 10.5153 80.1544 10.6995 80.2381 10.7833 80.4223 10.7833 80.64 10.7833 80.8409 10.7833 81.0251 10.7665 81.2093 10.7665 81.4102 10.7498 81.5944 10.733 81.7953 10.7163 81.9963 10.6995 82.214 10.666 82.4316 10.6326 82.666 10.6158 82.934 10.5823 83.1181 10.5656 83.3023 10.5321 83.4865 10.4986 83.654 10.4651 83.8214 10.4316 83.9721 10.3981 84.1228 10.3647 84.2567 10.3312 84.374 10.3144 84.4912 10.2809 84.5916 10.2642 84.6586 10.2642 84.7088 10.2642 84.7591 10.2474 84.8093 10.2474 84.8595 10.2307 84.9098 10.2307 84.9433 10.2474 84.9767 10.2642 85.0102 10.2809 85.027 10.2977 85.0437 10.2809 85.0605 10.3312 85.0605 10.4149Z" fill="#1B1B1B" transform="scale(1.00027 1)"/><path d="M100.683 6.51349C100.683 6.56372 100.666 6.61395 100.649 6.66419 100.633 6.73116 100.599 6.79814 100.566 6.84837 100.532 6.91535 100.499 6.96558 100.465 7.03256 100.432 7.08279 100.381 7.13302 100.331 7.14977 100.197 7.21674 100.08 7.26698 99.9628 7.28372 99.8623 7.31721 99.7284 7.3507 99.5777 7.36744 99.1256 7.45116 98.6735 7.53488 98.2381 7.58512 97.8028 7.65209 97.4009 7.68558 97.0158 7.73581 96.6307 7.78605 96.2791 7.80279 95.9609 7.81953 95.6428 7.83628 95.3749 7.83628 95.1405 7.83628 95.0233 7.83628 94.906 7.83628 94.8056 7.83628 94.7051 7.83628 94.6214 7.83628 94.5377 7.83628 94.4539 7.83628 94.3702 7.83628 94.2865 7.83628 94.2028 7.83628 94.1191 7.83628 94.0353 7.83628 93.8177 7.83628 93.6335 7.83628 93.4828 7.83628 93.3321 7.83628 93.1981 7.81953 93.0809 7.81953 93.014 7.98698 92.9637 8.18791 92.9302 8.43907 92.8967 8.69023 92.88 8.9414 92.8633 9.19256 92.8465 9.44372 92.8298 9.71163 92.8298 9.96279 92.8298 10.214 92.813 10.4316 92.7795 10.6158 92.88 10.6828 92.9637 10.733 93.0307 10.7665 93.0977 10.8 93.1647 10.8335 93.2316 10.8502 93.2986 10.867 93.3823 10.8837 93.4493 10.8837 93.533 10.8837 93.6167 10.8837 93.7339 10.8837 93.8512 10.8837 93.9851 10.8837 94.1358 10.8837 94.2865 10.8837 94.4205 10.8837 94.5712 10.867 94.7219 10.867 94.8558 10.8502 95.0065 10.8335 95.1405 10.8167 95.2744 10.8 95.3749 10.7665 95.5591 10.7163 95.7265 10.6995 95.8772 10.6828 96.0279 10.6828 96.1619 10.6828 96.2958 10.6828 96.4298 10.6828 96.5637 10.6828 96.7144 10.6493 96.8484 10.6326 97.0158 10.5991 97.1833 10.5153 97.3005 10.4651 97.4177 10.4149 97.5181 10.3814 97.6186 10.3312 97.7191 10.2977 97.8028 10.2809 97.8865 10.2642 97.987 10.2307 98.0707 10.214 98.1544 10.1972 98.2381 10.1805 98.3386 10.1805 98.4223 10.1805 98.4726 10.214 98.5395 10.2642 98.5898 10.3144 98.64 10.3814 98.6567 10.4651 98.6735 10.5488 98.707 10.6493 98.7237 10.7498 98.7405 10.8502 98.7405 10.9507 98.7405 11.0512 98.7405 11.1516 98.707 11.2521 98.6233 11.3191 98.5395 11.386 98.4558 11.453 98.3554 11.5033 98.2549 11.5535 98.1544 11.587 98.0372 11.6205 97.9367 11.654 97.853 11.6707 97.786 11.6874 97.6688 11.7042 97.5349 11.7377 97.3507 11.7377 97.1665 11.7544 96.9823 11.7712 96.7814 11.7712 96.5805 11.7712 96.3963 11.7879 96.2121 11.8047 96.0279 11.8047 95.8772 11.8214 95.76 11.8381 95.4251 11.8716 95.0902 11.9051 94.7219 11.9219 94.3535 11.9386 94.0019 11.9386 93.6335 11.9386 93.4493 11.9386 93.2819 11.9553 93.1479 11.9721 93.014 11.9888 92.8633 12.0391 92.7126 12.0726 92.6791 12.0893 92.6456 12.1395 92.6121 12.2567 92.5786 12.374 92.5284 12.5247 92.4949 12.6921 92.4446 12.8763 92.4112 13.0605 92.3609 13.2781 92.3107 13.4958 92.2772 13.6967 92.227 13.8809 92.16 14.1656 92.1098 14.4335 92.0763 14.6847 92.0428 14.9191 92.026 15.0865 92.0093 15.187 92.0428 15.2205 92.0763 15.254 92.1098 15.2874 92.1433 15.3209 92.1935 15.3377 92.2605 15.3377 92.3777 15.3377 92.5284 15.3377 92.7126 15.3377 92.88 15.3377 93.0642 15.3377 93.2484 15.3209 93.4326 15.3209 93.6167 15.3042 93.8009 15.3042 93.9851 15.3042 94.1358 15.2874 94.253 15.2707 94.5712 15.2372 94.906 15.2037 95.2409 15.187 95.5926 15.1535 95.9274 15.12 96.2456 15.0865 96.5637 15.053 96.8819 15.0028 97.1665 14.9526 97.4512 14.9023 97.7023 14.8521 97.92 14.8019 97.92 14.8019 97.9535 14.7851 98.0205 14.7684 98.0874 14.7516 98.1879 14.7181 98.2884 14.6847 98.4056 14.6512 98.5228 14.6177 98.64 14.5842 98.7572 14.5507 98.8912 14.5172 98.9916 14.4837 99.1088 14.4502 99.1926 14.4335 99.2763 14.4 99.3433 14.3833 99.3935 14.3665 99.3767 14.3665 99.4437 14.3665 99.5107 14.3833 99.5777 14.4167 99.6446 14.4502 99.7116 14.5005 99.7619 14.5674 99.8121 14.6344 99.8623 14.7014 99.8958 14.8019 99.9293 14.8856 99.9461 14.986 99.9461 15.0865 99.9461 15.12 99.9293 15.187 99.8958 15.254 99.8623 15.3209 99.8121 15.3879 99.7451 15.4716 99.6781 15.5386 99.5944 15.6056 99.5107 15.6726 99.427 15.7395 99.3265 15.773 99.226 15.7898 98.9916 15.84 98.7572 15.8735 98.5395 15.907 98.3219 15.9405 98.1042 15.974 97.8865 16.0074 97.6688 16.0409 97.4344 16.0577 97.1833 16.0912 96.9321 16.1247 96.6642 16.1414 96.346 16.1749 95.9777 16.2084 95.6093 16.2586 95.2409 16.2921 94.8726 16.3256 94.5209 16.3758 94.2028 16.426 93.8847 16.4763 93.6 16.5098 93.3488 16.5433 93.0977 16.5767 92.9135 16.6102 92.7963 16.627 92.6791 16.6437 92.5619 16.6772 92.4279 16.7107 92.294 16.7442 92.16 16.7777 92.026 16.8112 91.8921 16.8447 91.7749 16.8781 91.6577 16.8949 91.5405 16.9284 91.4567 16.9284 91.373 16.9284 91.2391 16.9284 91.1219 16.9116 91.0214 16.8781 90.9209 16.8447 90.8372 16.7777 90.7702 16.694 90.7033 16.6102 90.653 16.4763 90.6195 16.3256 90.586 16.1749 90.5693 15.974 90.5693 15.7395 90.5693 15.5386 90.6028 15.3042 90.653 15.053 90.7033 14.8019 90.787 14.5005 90.854 14.1321 90.9042 13.8307 90.9712 13.546 91.0381 13.2447 91.1051 12.9433 91.1721 12.6586 91.2223 12.3572 91.2893 12.0558 91.3395 11.7712 91.373 11.4698 91.4065 11.1684 91.44 10.8837 91.44 10.5823 91.44 10.3647 91.4567 10.147 91.4902 9.9293 91.5237 9.71163 91.5405 9.49395 91.574 9.25953 91.6074 9.02512 91.6242 8.80744 91.6409 8.58977 91.6577 8.37209 91.6744 8.13767 91.6744 7.93674 91.6744 7.90326 91.6744 7.85302 91.6577 7.78605 91.6409 7.71907 91.6409 7.66884 91.6409 7.63535 91.6409 7.43442 91.7079 7.2 91.8586 6.94884 91.8921 6.88186 91.9591 6.81488 92.0428 6.74791 92.1265 6.68093 92.227 6.61395 92.3442 6.56372 92.4446 6.51349 92.5619 6.46326 92.6623 6.42977 92.7628 6.39628 92.8633 6.37953 92.9302 6.37953 92.9805 6.37953 93.0642 6.39628 93.1814 6.41302 93.2986 6.42977 93.4158 6.46326 93.5498 6.48 93.6837 6.49674 93.8009 6.53023 93.9181 6.54698 94.0353 6.56372 94.1191 6.58046 94.1693 6.58046 94.253 6.58046 94.3535 6.58046 94.5042 6.58046 94.6381 6.58046 94.7888 6.58046 94.9563 6.58046 95.1237 6.58046 95.2912 6.58046 95.4586 6.58046 95.626 6.58046 95.8102 6.58046 95.9609 6.56372 96.3293 6.54698 96.6642 6.53023 96.9991 6.49674 97.334 6.48 97.6688 6.42977 98.0372 6.36279 98.2549 6.3293 98.4558 6.27907 98.64 6.22884 98.8242 6.17861 98.9916 6.11163 99.1591 6.0614 99.3265 6.01116 99.494 5.96093 99.6614 5.92744 99.8288 5.89395 99.9963 5.87721 100.164 5.87721 100.231 5.87721 100.281 5.89395 100.348 5.92744 100.415 5.96093 100.465 5.99442 100.515 6.04465 100.566 6.09488 100.599 6.16186 100.633 6.22884 100.666 6.37953 100.683 6.44651 100.683 6.51349Z" fill="#FE4A21" transform="scale(1.00027 1)"/><path d="M108.536 10.934C108.536 10.9674 108.536 11.0009 108.536 11.0679 108.536 11.1181 108.519 11.1851 108.502 11.2353 108.486 11.2856 108.452 11.3358 108.435 11.386 108.419 11.4363 108.368 11.453 108.335 11.453 108.301 11.453 108.251 11.453 108.184 11.453 108.117 11.453 108.05 11.453 107.967 11.4363 107.9 11.4363 107.816 11.4363 107.749 11.4195 107.682 11.4028 107.632 11.4195 107.598 11.4195 106.677 11.4698 105.924 11.8047 105.321 12.4242 104.718 13.027 104.199 13.8307 103.764 14.8186 103.68 15.0195 103.596 15.2372 103.529 15.4549 103.446 15.6726 103.379 15.907 103.295 16.1581 103.261 16.2921 103.228 16.4093 103.211 16.5098 103.194 16.6102 103.161 16.7274 103.127 16.8447 103.111 16.8781 103.077 16.9284 103.01 16.9619 102.943 16.9953 102.86 17.0288 102.776 17.0623 102.692 17.0958 102.608 17.1126 102.525 17.1293 102.441 17.146 102.391 17.1628 102.357 17.1628 102.022 17.1795 101.838 16.8447 101.805 16.1414 101.788 15.9572 101.788 15.773 101.788 15.6223 101.788 15.4716 101.788 15.3209 101.805 15.1702 101.821 15.0195 101.821 14.8688 101.838 14.7181 101.855 14.5507 101.872 14.3833 101.888 14.1823 101.905 13.9312 101.939 13.6465 101.972 13.3116 102.006 12.9935 102.039 12.6586 102.089 12.3237 102.14 11.9888 102.173 11.6707 102.223 11.386 102.273 11.0847 102.324 10.8335 102.374 10.6493 102.424 10.4316 102.508 10.2642 102.592 10.147 102.692 10.0298 102.826 9.97953 103.01 9.96279 103.06 9.96279 103.111 9.97953 103.161 9.99628 103.211 10.013 103.261 10.0633 103.312 10.0967 103.362 10.147 103.395 10.1805 103.429 10.2307 103.462 10.2809 103.479 10.3144 103.479 10.3647 103.479 10.4819 103.479 10.6158 103.479 10.7498 103.462 10.8837 103.446 11.0344 103.429 11.1851 103.412 11.3358 103.379 11.4865 103.345 11.6372 103.312 11.7879 103.278 11.9386 103.245 12.0726 103.178 12.3405 103.127 12.5749 103.094 12.7758 103.06 12.9767 103.027 13.1609 103.01 13.3451 102.993 13.5293 102.96 13.7302 102.943 13.9312 102.927 14.1321 102.893 14.4 102.843 14.7014 102.927 14.5172 102.993 14.3665 103.06 14.2326 103.127 14.0986 103.178 13.9814 103.228 13.8977 103.278 13.7972 103.328 13.7135 103.362 13.6298 103.395 13.546 103.446 13.4791 103.496 13.3953 103.546 13.3116 103.596 13.2112 103.647 13.1107 103.697 13.0102 103.78 12.893 103.864 12.7423 104.199 12.1898 104.551 11.7377 104.936 11.386 105.321 11.0344 105.689 10.7833 106.041 10.6326 106.443 10.4484 106.778 10.3312 107.029 10.3312 107.146 10.3312 107.297 10.3312 107.481 10.3479 107.648 10.3647 107.816 10.3981 107.983 10.4484 108.134 10.4986 108.285 10.5656 108.385 10.6493 108.486 10.7163 108.536 10.8167 108.536 10.934Z" fill="#FE4A21" transform="scale(1.00027 1)"/><path d="M119.821 11.8381C119.821 11.8884 119.821 11.9721 119.805 12.0391 119.788 12.1228 119.771 12.2065 119.738 12.2735 119.704 12.3572 119.687 12.4409 119.654 12.5079 119.62 12.5749 119.587 12.6419 119.553 12.6921 119.52 12.7256 119.487 12.7758 119.42 12.8428 119.369 12.9098 119.302 12.9767 119.235 13.0605 119.168 13.1442 119.101 13.2112 119.018 13.2949 118.934 13.3786 118.85 13.4623 118.767 13.5293 118.465 13.7972 118.18 14.0651 117.896 14.3163 117.611 14.5674 117.31 14.8019 117.008 15.0028 116.707 15.2037 116.389 15.3544 116.071 15.4716 115.736 15.5888 115.384 15.6391 114.999 15.6391 114.815 15.6391 114.647 15.6056 114.463 15.5386 114.279 15.4716 114.112 15.3879 113.961 15.254 113.81 15.1367 113.66 14.986 113.559 14.8186 113.442 14.6512 113.358 14.467 113.308 14.266 113.174 14.4167 113.023 14.5674 112.873 14.7181 112.722 14.8688 112.554 15.0363 112.387 15.187 112.22 15.3377 112.052 15.5051 111.868 15.6391 111.684 15.7898 111.516 15.9237 111.315 16.0409 111.215 16.1079 111.081 16.1749 110.93 16.2586 110.78 16.3423 110.629 16.4093 110.478 16.4763 110.311 16.5433 110.16 16.5935 109.993 16.627 109.825 16.6605 109.691 16.694 109.557 16.694 109.356 16.694 109.189 16.627 109.055 16.5098 108.921 16.3926 108.804 16.2419 108.703 16.0577 108.603 15.8735 108.536 15.6893 108.502 15.4884 108.452 15.2874 108.435 15.1033 108.435 14.9526 108.435 14.6344 108.486 14.3163 108.569 13.9814 108.653 13.6465 108.787 13.3284 108.921 13.0102 109.072 12.6921 109.222 12.3907 109.407 12.1228 109.591 11.8381 109.758 11.587 109.942 11.3693 110.127 11.1349 110.344 10.9172 110.595 10.6828 110.847 10.4484 111.098 10.2474 111.366 10.08 111.633 9.89581 111.901 9.76186 112.153 9.64465 112.404 9.52744 112.638 9.47721 112.839 9.47721 112.94 9.47721 113.04 9.47721 113.157 9.47721 113.274 9.47721 113.375 9.47721 113.492 9.49395 113.609 9.5107 113.71 9.52744 113.81 9.54419 113.911 9.57767 114.011 9.61116 114.095 9.6614 114.145 9.69488 114.195 9.74512 114.246 9.82884 114.296 9.91256 114.363 9.99628 114.413 10.0967 114.463 10.1972 114.513 10.2977 114.547 10.3981 114.58 10.4986 114.597 10.5823 114.597 10.6326 114.597 10.7833 114.564 11.0009 114.497 11.2688 114.413 11.6037 114.346 11.9051 114.279 12.173 114.212 12.4409 114.179 12.7256 114.179 13.0102 114.179 13.1777 114.212 13.3451 114.262 13.5126 114.313 13.68 114.396 13.8307 114.497 13.9814 114.597 14.1153 114.714 14.2326 114.848 14.3163 114.982 14.4 115.15 14.4502 115.334 14.4502 115.619 14.4502 115.92 14.3833 116.238 14.266 116.54 14.1488 116.858 13.9814 117.176 13.7637 117.494 13.546 117.795 13.3116 118.113 13.027 118.432 12.7423 118.733 12.4409 119.034 12.1395 119.051 12.106 119.101 12.0558 119.168 11.9888 119.235 11.9219 119.286 11.8549 119.353 11.7879 119.42 11.7209 119.487 11.654 119.537 11.6037 119.604 11.5535 119.637 11.52 119.671 11.52 119.771 11.5535 119.821 11.654 119.821 11.8381ZM113.425 11.2521C113.425 11.1684 113.425 11.0679 113.408 10.9507 113.392 10.8335 113.375 10.733 113.308 10.6493 113.258 10.5656 113.191 10.5321 113.107 10.5321 113.023 10.5321 112.956 10.5321 112.873 10.5321 112.705 10.5321 112.538 10.5656 112.387 10.6158 112.236 10.666 112.086 10.7498 111.935 10.8335 111.784 10.9172 111.65 11.0344 111.5 11.1516 111.366 11.2688 111.232 11.4028 111.098 11.5367 110.98 11.654 110.863 11.7879 110.746 11.9386 110.629 12.0893 110.512 12.2735 110.394 12.4744 110.277 12.6753 110.16 12.8763 110.06 13.0772 109.942 13.2949 109.859 13.4958 109.775 13.7135 109.691 13.9144 109.624 14.1153 109.574 14.3163 109.524 14.5172 109.507 14.6847 109.507 14.8521 109.507 14.9023 109.507 14.9693 109.524 15.0363 109.54 15.12 109.557 15.187 109.574 15.2707 109.607 15.3377 109.641 15.4047 109.674 15.4549 109.725 15.5051 109.775 15.5386 109.842 15.5386 110.06 15.5386 110.344 15.4716 110.662 15.3377 111.114 15.1535 111.516 14.8856 111.885 14.5507 112.253 14.2158 112.571 13.8307 112.822 13.3953 113.241 12.7423 113.425 12.0223 113.425 11.2521Z" fill="#FE4A21" transform="scale(1.00027 1)"/><path d="M16.6102 11.0512 16.6102 15.9405 21.1312 15.9405C21.1312 15.9405 19.8251 22.6214 13.0102 21.667 13.0102 21.667 5.04 20.9135 5.42512 12.9433 5.42512 12.9433 5.42512 5.92744 13.0102 5.17395 13.0102 5.17395 15.6726 5.17395 16.2419 5.74326L16.2419 0.435349C16.2419 0.435349 6.84837-2.88 0.786977 8.87442 0.786977 8.87442-2.62884 17.5981 4.95628 24.0447 4.95628 24.0447 11.9721 29.9219 20.6958 25.1833 20.6958 25.1833 27.1423 21.1981 27.1423 15.12L27.1423 11.1014 16.6102 11.0512Z" fill="#FE4A21" transform="scale(1.00027 1)"/><path d="M17.9498 13.5293C17.9498 15.7395 16.1581 17.5312 13.9479 17.5312 11.7377 17.5312 9.94605 15.7395 9.94605 13.5293 9.94605 11.3191 11.7377 9.52744 13.9479 9.52744 16.1581 9.52744 17.9498 11.3191 17.9498 13.5293Z" fill="#1B1B1B" transform="scale(1.00027 1)"/><path d="M61.8028 36C61.8028 36 108.167 13.2279 135.963 25.066 126.134 23.2912 101.821 19.1721 61.8028 36Z" fill="#FE4A21" transform="scale(1.00027 1)"/></g></svg>