<?xml version="1.0" encoding="utf-8"?>
<!-- Generator: Adobe Illustrator 24.3.0, SVG Export Plug-In . SVG Version: 6.00 Build 0)  -->
<svg version="1.1" id="Layer_1" xmlns="http://www.w3.org/2000/svg" xmlns:xlink="http://www.w3.org/1999/xlink" x="0px" y="0px"
	 viewBox="0 0 554 554" style="enable-background:new 0 0 554 554;" xml:space="preserve">
<style type="text/css">
	.st0{fill:#FE4A21;}
	.st1{fill:#FFFFFF;}
</style>
<g id="Layer_2_1_">
	<g id="Layer_1-2">
		<path class="st0" d="M336.1,228.5v95.1h88c0,0-25.2,130.1-158.1,111.6c0,0-155.1-14.8-147.7-169.8c0,0,0-136.6,147.7-151.4
			c0,0,51.7,0,62.8,11.1V21.8c0,0-182.8-64.6-300.9,164.3c0,0-66.5,169.8,81.2,295.4c0,0,136.6,114.5,306.4,22.2
			c0,0,125.5-77.5,125.5-195.7v-78.5L336.1,228.5z"/>
		<circle class="st1" cx="284.2" cy="276.6" r="77.8"/>
	</g>
</g>
</svg>